<svg xmlns="http://www.w3.org/2000/svg" xmlns:xlink="http://www.w3.org/1999/xlink" version="1.1" width="1080" height="1080" viewBox="0 0 1080 1080" xml:space="preserve">
<g transform="matrix(1 0 0 1 540 540)" id="abd42d91-0de9-41ef-abde-70c52a2e1e3c"  >
<rect style="stroke: none; stroke-width: 1; stroke-dasharray: none; stroke-linecap: butt; stroke-dashoffset: 0; stroke-linejoin: miter; stroke-miterlimit: 4; fill: rgb(255,255,255); fill-rule: nonzero; opacity: 1; visibility: hidden;" vector-effect="non-scaling-stroke"  x="-540" y="-540" rx="0" ry="0" width="1080" height="1080" />
</g>
<g transform="matrix(1 0 0 1 540 540)" id="1b9d9d41-d163-4f6d-a244-1006d73c8061"  >
</g>
<g transform="matrix(33.75 0 0 33.75 540 540)"  >
<path style="stroke: none; stroke-width: 1; stroke-dasharray: none; stroke-linecap: butt; stroke-dashoffset: 0; stroke-linejoin: miter; stroke-miterlimit: 4; fill: rgb(0,188,255); fill-rule: nonzero; opacity: 1;"  transform=" translate(-16, -16.05)" d="M 7.5 15.1 C 9 15.1 9.2 14.299999999999999 9.2 13.6 C 9.2 13 9.1 12.5 9.1 11.9 C 9.1 11.3 9 10.7 9 10.2 C 9 8.1 10.3 7.199999999999999 12.4 7.199999999999999 L 13.200000000000001 7.199999999999999 L 13.200000000000001 9.1 L 12.8 9.1 C 11.8 9.1 11.5 9.7 11.5 10.7 C 11.5 11.1 11.6 11.5 11.6 12 C 11.6 12.4 11.7 12.9 11.7 13.5 C 11.7 15.2 11 15.8 9.799999999999999 16.1 C 10.999999999999998 16.400000000000002 11.7 17 11.7 18.700000000000003 C 11.7 19.300000000000004 11.6 19.800000000000004 11.6 20.200000000000003 C 11.6 20.6 11.5 21.1 11.5 21.400000000000002 C 11.5 22.400000000000002 11.8 23.000000000000004 12.8 23.000000000000004 L 13.200000000000001 23.000000000000004 L 13.200000000000001 24.900000000000002 L 12.4 24.900000000000002 C 10.4 24.900000000000002 9.100000000000001 24.1 9.100000000000001 21.900000000000002 C 9.100000000000001 21.3 9.100000000000001 20.8 9.200000000000001 20.200000000000003 C 9.3 19.6 9.3 19.000000000000004 9.3 18.500000000000004 C 9.3 17.900000000000002 9.100000000000001 17.000000000000004 7.6000000000000005 17.000000000000004 L 7.500000000000001 15.100000000000003 z M 24.5 16.8 C 23 16.8 22.8 17.7 22.8 18.3 C 22.8 18.900000000000002 22.900000000000002 19.400000000000002 22.900000000000002 20 C 23.000000000000004 20.6 23.000000000000004 21.2 23.000000000000004 21.7 C 23.000000000000004 23.9 21.600000000000005 24.7 19.600000000000005 24.7 L 18.800000000000004 24.7 L 18.800000000000004 23 L 19.200000000000003 23 C 20.200000000000003 23 20.500000000000004 22.4 20.500000000000004 21.4 C 20.500000000000004 21 20.500000000000004 20.599999999999998 20.400000000000002 20.2 C 20.400000000000002 19.7 20.3 19.2 20.3 18.7 C 20.3 17 21 16.4 22.2 16.099999999999998 C 21 15.799999999999997 20.3 15.199999999999998 20.3 13.499999999999998 C 20.3 12.899999999999999 20.400000000000002 12.399999999999999 20.400000000000002 11.999999999999998 C 20.500000000000004 11.499999999999998 20.500000000000004 11.099999999999998 20.500000000000004 10.699999999999998 C 20.500000000000004 9.699999999999998 20.100000000000005 9.199999999999998 19.200000000000003 9.099999999999998 L 18.800000000000004 9.099999999999998 L 18.800000000000004 7.2 L 19.600000000000005 7.2 C 21.700000000000006 7.2 23.000000000000004 8.1 23.000000000000004 10.2 C 23.000000000000004 10.799999999999999 22.900000000000002 11.299999999999999 22.900000000000002 11.899999999999999 C 22.8 12.499999999999998 22.8 13.099999999999998 22.8 13.599999999999998 C 22.8 14.299999999999997 23 15.099999999999998 24.5 15.099999999999998 L 24.5 16.799999999999997 z" stroke-linecap="round" />
</g>
<g transform="matrix(NaN NaN NaN NaN 0 0)"  >
<g style=""   >
</g>
</g>
</svg>